<svg width="113" height="87" fill="none" xmlns="http://www.w3.org/2000/svg" viewBox="0 0 113 87"><path d="M60.442 63.977h-2.04s-.219-.023-.297.213c-.11.307-4.017 11.425-4.142 11.787-.031.086-.078.133-.133.141-.007.008-.023 0-.03 0 0 0-.024.008-.032 0-.055-.008-.11-.055-.133-.141a5995.42 5995.42 0 01-4.142-11.787c-.078-.236-.305-.213-.305-.213h-2.031c-.235 0-.446.142-.344.457.14.409 5.47 15.162 5.47 15.162s.11.315.328.315h2.36c.227 0 .329-.315.329-.315 5.337-14.777 5.08-14.021 5.47-15.162.117-.315-.094-.457-.328-.457zM8.763 63.576C4.27 63.576.8 67.258.8 71.956v14.383c0 .661.063.661.64.661h1.22c.602 0 .656 0 .656-.66v-7.838c0-.33.32-.511.672-.15 1.227 1.236 2.962 1.96 4.799 1.96 4.384 0 7.892-3.588 7.892-8.356.008-4.792-3.555-8.38-7.916-8.38zm0 14.328c-2.915 0-5.345-2.628-5.345-5.94 0-3.313 2.462-5.94 5.345-5.94 2.923 0 5.322 2.596 5.322 5.94-.008 3.336-2.407 5.94-5.322 5.94zM26.784 63.576c-4.486 0-7.963 3.777-7.963 8.42 0 4.579 3.477 8.324 7.963 8.324 4.517 0 7.963-3.745 7.963-8.325 0-4.642-3.446-8.419-7.963-8.419zm0 14.202c-2.923 0-5.322-2.604-5.322-5.79 0-3.25 2.4-5.91 5.322-5.91 2.954 0 5.345 2.66 5.345 5.91 0 3.186-2.391 5.79-5.345 5.79zM87.527 63.576c-3.782 0-6.61 2.636-6.61 6.657v9.135c0 .417.054.55.57.55h1.43c.437 0 .594 0 .594-.432v-9.348c0-2.384 1.563-4.115 4.024-4.115 2.43 0 3.993 1.731 3.993 4.115v9.348c0 .354.133.425.5.425h1.493c.555 0 .586-.118.586-.575v-9.103c-.007-4.029-2.797-6.657-6.58-6.657zM70.21 63.584c-4.392 0-8.026 3.194-8.026 8.372 0 4.658 3.634 8.309 8.182 8.309 3.447 0 5.986-1.708 7.291-4.745a.436.436 0 00-.445-.566h-1.727c-.313 0-.453.251-.453.251-1.032 1.692-2.72 2.676-4.666 2.676-1.656 0-3.626-1.023-4.259-2.11-.18-.314-.086-.558.157-.66 1.86-.795 11.151-4.808 11.159-4.808.29-.118.484-.322.406-.653-.969-3.997-4.141-6.066-7.619-6.066zm4.009 5.453c-.578.251-8.346 3.595-8.541 3.682-.196.079-.524.07-.633-.275-.258-.819-.352-4.25 2.805-5.815 2.657-1.314 5.423-.197 6.556 1.841.133.236.04.472-.187.567zM100.422 63.977h-1.556c-.336 0-.515.032-.515.402v15.17c0 .456.43.37.539.37h1.555c.336 0 .516-.04.516-.394v-.157-15.013c0-.472-.43-.378-.539-.378zM112.183 63.615c-3.869-.189-6.94 2.25-6.94 6.83v9.088c0 .456.422.377.539.377h1.532c.336 0 .516-.047.516-.4v-9.128c0-2.888 1.719-4.375 4.47-4.296.226 0 .508-.095.508-.472v-1.448c-.008-.417-.274-.559-.625-.55zM44.789 63.615c-3.868-.189-6.94 2.25-6.94 6.83v9.088c0 .456.43.377.532.377h1.54c.335 0 .507-.047.507-.4v-9.128c0-2.888 1.727-4.375 4.47-4.296.227 0 .508-.095.508-.472v-1.448c0-.417-.258-.559-.617-.55z" fill="#fff"/><path d="M60.442 63.977h-2.04s-.219-.023-.297.213c-.11.307-4.017 11.425-4.142 11.787-.031.086-.078.133-.133.141-.007.008-.023 0-.03 0 0 0-.024.008-.032 0-.055-.008-.11-.055-.133-.141a5995.42 5995.42 0 01-4.142-11.787c-.078-.236-.305-.213-.305-.213h-2.031c-.235 0-.446.142-.344.457.14.409 5.47 15.162 5.47 15.162s.11.315.328.315h2.36c.227 0 .329-.315.329-.315 5.337-14.777 5.08-14.021 5.47-15.162.117-.315-.094-.457-.328-.457zM8.763 63.576C4.27 63.576.8 67.258.8 71.956v14.383c0 .661.063.661.64.661h1.22c.602 0 .656 0 .656-.66v-7.838c0-.33.32-.511.672-.15 1.227 1.236 2.962 1.96 4.799 1.96 4.384 0 7.892-3.588 7.892-8.356.008-4.792-3.555-8.38-7.916-8.38zm0 14.328c-2.915 0-5.345-2.628-5.345-5.94 0-3.313 2.462-5.94 5.345-5.94 2.923 0 5.322 2.596 5.322 5.94-.008 3.336-2.407 5.94-5.322 5.94zM26.784 63.576c-4.486 0-7.963 3.777-7.963 8.42 0 4.579 3.477 8.324 7.963 8.324 4.517 0 7.963-3.745 7.963-8.325 0-4.642-3.446-8.419-7.963-8.419zm0 14.202c-2.923 0-5.322-2.604-5.322-5.79 0-3.25 2.4-5.91 5.322-5.91 2.954 0 5.345 2.66 5.345 5.91 0 3.186-2.391 5.79-5.345 5.79zM87.527 63.576c-3.782 0-6.61 2.636-6.61 6.657v9.135c0 .417.054.55.57.55h1.43c.437 0 .594 0 .594-.432v-9.348c0-2.384 1.563-4.115 4.024-4.115 2.43 0 3.993 1.731 3.993 4.115v9.348c0 .354.133.425.5.425h1.493c.555 0 .586-.118.586-.575v-9.103c-.007-4.029-2.797-6.657-6.58-6.657zM70.21 63.584c-4.392 0-8.026 3.194-8.026 8.372 0 4.658 3.634 8.309 8.182 8.309 3.447 0 5.986-1.708 7.291-4.745a.436.436 0 00-.445-.566h-1.727c-.313 0-.453.251-.453.251-1.032 1.692-2.72 2.676-4.666 2.676-1.656 0-3.626-1.023-4.259-2.11-.18-.314-.086-.558.157-.66 1.86-.795 11.151-4.808 11.159-4.808.29-.118.484-.322.406-.653-.969-3.997-4.141-6.066-7.619-6.066zm4.009 5.453c-.578.251-8.346 3.595-8.541 3.682-.196.079-.524.07-.633-.275-.258-.819-.352-4.25 2.805-5.815 2.657-1.314 5.423-.197 6.556 1.841.133.236.04.472-.187.567zM100.422 63.977h-1.556c-.336 0-.515.032-.515.402v15.17c0 .456.43.37.539.37h1.555c.336 0 .516-.04.516-.394v-.157-15.013c0-.472-.43-.378-.539-.378zM112.183 63.615c-3.869-.189-6.94 2.25-6.94 6.83v9.088c0 .456.422.377.539.377h1.532c.336 0 .516-.047.516-.4v-9.128c0-2.888 1.719-4.375 4.47-4.296.226 0 .508-.095.508-.472v-1.448c-.008-.417-.274-.559-.625-.55zM44.789 63.615c-3.868-.189-6.94 2.25-6.94 6.83v9.088c0 .456.43.377.532.377h1.54c.335 0 .507-.047.507-.4v-9.128c0-2.888 1.727-4.375 4.47-4.296.227 0 .508-.095.508-.472v-1.448c0-.417-.258-.559-.617-.55zM104.126 52.82l-.024-.008c-.008 0-.015 0-.015-.008l-8.08-5.035 8.252-5.988.007-.008a.958.958 0 00.407-.78c0-.479-.36-.872-.821-.928v-.015L93.677 39.01l8.901-10.992a.927.927 0 00-.64-1.59c-.024 0-.039 0-.063.009l-.008-.016-14.09 2.297 4.181-9.37v-.009c.04-.11.063-.228.063-.346a.964.964 0 00-.962-.968.993.993 0 00-.304.055l-.008-.008-9.339 4.226L83.66 8.333a.964.964 0 00-.938-1.165.89.89 0 00-.516.157l-.007.008c-.055.04-.102.079-.149.126l-10.862 8.907-1.016-10.15h-.008a.612.612 0 00.016-.118.905.905 0 00-.907-.913.914.914 0 00-.82.52l-5.947 8.309L57.48.724h-.008a.9.9 0 00-1.766 0l-5.01 13.29-5.946-8.302-.008.008a.906.906 0 00-.82-.535c-.5 0-.915.41-.915.913 0 .055.008.102.008.15h-.008l-1.016 10.118-10.987-9.025a.943.943 0 00-.547-.173.964.964 0 00-.962.968c0 .079.016.157.032.228l2.243 13.927-9.316-4.218-.007.008a.914.914 0 00-.336-.063.964.964 0 00-.876 1.362l4.166 9.34-14.075-2.298-.008.008c-.03 0-.054-.008-.085-.008a.922.922 0 00-.923.928c0 .268.118.512.297.677L19.5 39.003 9.341 40.042v.008a.943.943 0 00-.398 1.73l8.237 5.98-8.12 5.013c-.047.016-.086.023-.125.047l-.031.016h.015a.945.945 0 00-.515.842h16.082c.04-17.79 14.38-32.197 32.064-32.197 17.684 0 32.025 14.406 32.087 32.189h16.044c0-.378-.235-.7-.555-.85z" fill="#fff"/><path d="M86.504 53.678c-.055-16.972-13.348-30.71-29.743-30.71-16.388 0-29.68 13.738-29.735 30.71h59.478z" fill="#fff"/></svg>