<?xml version="1.0" encoding="UTF-8"?><!DOCTYPE svg PUBLIC "-//W3C//DTD SVG 1.1//EN" "http://www.w3.org/Graphics/SVG/1.1/DTD/svg11.dtd"><svg xmlns="http://www.w3.org/2000/svg" xmlns:xlink="http://www.w3.org/1999/xlink"><symbol id="icon-arrow-down" viewBox="0 0 24 24"><path fill-rule="evenodd" clip-rule="evenodd" d="M5.363 8.363a.9.9 0 011.273 0L12 13.727l5.363-5.364a.9.9 0 111.273 1.273l-5.788 5.788a1.2 1.2 0 01-1.697 0L5.363 9.636a.9.9 0 010-1.273z"/></symbol><symbol id="icon-facebook" viewBox="0 0 25 24"><path d="M9.846 5.865v2.748H7.832v3.36h2.014v9.986h4.134v-9.985h2.775s.26-1.611.386-3.373h-3.144V6.303c0-.343.45-.805.896-.805h2.254V2h-3.064c-4.34 0-4.237 3.363-4.237 3.865z"/></symbol><symbol id="icon-instagram" viewBox="0 0 25 24"><path d="M13.828 2.001c.73-.003 1.46.005 2.189.022l.194.007c.224.008.445.018.712.03 1.064.05 1.79.218 2.427.465.66.254 1.216.598 1.772 1.154a4.91 4.91 0 011.153 1.771c.247.637.415 1.364.465 2.428.012.266.022.488.03.712l.006.194c.018.73.025 1.459.023 2.188l.001.746v1.31c.002.73-.005 1.46-.023 2.19l-.006.193c-.008.224-.018.445-.03.712-.05 1.064-.22 1.79-.466 2.427a4.884 4.884 0 01-1.153 1.772c-.5.509-1.105.902-1.772 1.153-.637.247-1.363.415-2.427.465-.267.012-.488.022-.712.03l-.194.006c-.73.018-1.46.026-2.189.023l-.746.001h-1.309c-.73.003-1.46-.005-2.189-.023l-.194-.006a60.412 60.412 0 01-.712-.03c-1.064-.05-1.79-.22-2.428-.466a4.888 4.888 0 01-1.771-1.153 4.904 4.904 0 01-1.154-1.772c-.247-.637-.415-1.363-.465-2.427a74.83 74.83 0 01-.03-.712l-.005-.194c-.018-.73-.027-1.459-.025-2.189v-2.056c-.003-.73.005-1.459.022-2.188l.007-.194c.008-.224.018-.446.03-.712.05-1.065.218-1.79.465-2.428A4.88 4.88 0 014.48 3.68a4.897 4.897 0 011.77-1.155c.638-.247 1.363-.415 2.428-.465l.712-.03.194-.005c.73-.018 1.459-.027 2.188-.025l2.056.001zm-1.028 5a5 5 0 100 10 5 5 0 000-10zm0 2a3 3 0 11.001 6 3 3 0 110-6H12.8zm5.25-3.5a1.25 1.25 0 000 2.498 1.25 1.25 0 000-2.5v.002z"/></symbol><symbol id="icon-twitter" viewBox="0 0 25 24"><path d="M14.608 10.469L21.68 2h-1.676l-6.142 7.353L8.958 2H3.3l7.418 11.12L3.3 22h1.676l6.486-7.765L16.642 22H22.3l-7.692-11.531zm-2.296 2.748l-.752-1.107L5.58 3.3h2.575l4.826 7.11.751 1.107 6.273 9.242h-2.574l-5.12-7.541.001-.001z"/></symbol><symbol id="icon-youtube" viewBox="0 0 25 24"><path d="M10.8 15l5.19-3-5.19-3v6zm11.56-7.83c.13.47.22 1.1.28 1.9.07.8.1 1.49.1 2.09l.06.84c0 2.19-.16 3.8-.44 4.83-.25.9-.83 1.48-1.73 1.73-.47.13-1.33.22-2.65.28-1.3.07-2.49.1-3.59.1L12.8 19c-4.19 0-6.8-.16-7.83-.44-.9-.25-1.48-.83-1.73-1.73-.13-.47-.22-1.1-.28-1.9-.07-.8-.1-1.49-.1-2.09L2.8 12c0-2.19.16-3.8.44-4.83.25-.9.83-1.48 1.73-1.73.47-.13 1.33-.22 2.65-.28 1.3-.07 2.49-.1 3.59-.1L12.8 5c4.19 0 6.8.16 7.83.44.9.25 1.48.83 1.73 1.73z"/></symbol></svg>