<?xml version="1.0" encoding="UTF-8"?><!DOCTYPE svg PUBLIC "-//W3C//DTD SVG 1.1//EN" "http://www.w3.org/Graphics/SVG/1.1/DTD/svg11.dtd"><svg xmlns="http://www.w3.org/2000/svg" xmlns:xlink="http://www.w3.org/1999/xlink"><symbol id="icon-arrow-right" viewBox="0 0 20 20"><path d="M17.317 11.693l-5.625 5.624a.625.625 0 11-.884-.884l4.558-4.558H3.125a.625.625 0 110-1.25h12.241l-4.558-4.557a.625.625 0 11.884-.885l5.625 5.625a.625.625 0 010 .885z"/></symbol><symbol id="icon-chevron-down" viewBox="0 0 20 20"><path fill-rule="evenodd" clip-rule="evenodd" d="M4.47 6.97a.75.75 0 011.06 0L10 11.44l4.47-4.47a.75.75 0 111.06 1.06l-4.823 4.824a1 1 0 01-1.414 0L4.47 8.03a.75.75 0 010-1.06z"/></symbol><symbol id="icon-search" viewBox="0 0 32 32"><path d="M21.302 19.295h-1.053l-.374-.36a8.667 8.667 0 001.974-7.12c-.627-3.706-3.72-6.666-7.454-7.12a8.673 8.673 0 00-9.693 9.694c.453 3.733 3.413 6.826 7.12 7.453a8.667 8.667 0 007.12-1.973l.36.373v1.053l5.667 5.667c.546.547 1.44.547 1.986 0a1.408 1.408 0 000-1.987l-5.653-5.68zm-8 0c-3.32 0-6-2.68-6-6s2.68-6 6-6 6 2.68 6 6-2.68 6-6 6z"/></symbol></svg>