<svg xmlns="http://www.w3.org/2000/svg" width="21" height="22" viewBox="0 0 21 22" fill="none">
<path d="M20.4345 8.77357L11.6845 0.470069C11.6803 0.466316 11.6762 0.462273 11.6725 0.457968C11.3503 0.16329 10.9305 0 10.4951 0C10.0596 0 9.63981 0.16329 9.31766 0.457968L9.30562 0.470069L0.565469 8.77357C0.387185 8.93847 0.244873 9.13878 0.147538 9.36185C0.0502023 9.58492 -3.67969e-05 9.82588 2.02211e-08 10.0695V20.2399C2.02211e-08 20.7067 0.184374 21.1544 0.512563 21.4845C0.840752 21.8146 1.28587 22 1.75 22H7C7.46413 22 7.90925 21.8146 8.23744 21.4845C8.56563 21.1544 8.75 20.7067 8.75 20.2399V14.9594H12.25V20.2399C12.25 20.7067 12.4344 21.1544 12.7626 21.4845C13.0908 21.8146 13.5359 22 14 22H19.25C19.7141 22 20.1592 21.8146 20.4874 21.4845C20.8156 21.1544 21 20.7067 21 20.2399V10.0695C21 9.82588 20.9498 9.58492 20.8525 9.36185C20.7551 9.13878 20.6128 8.93847 20.4345 8.77357ZM19.25 20.2399H14V14.9594C14 14.4926 13.8156 14.0449 13.4874 13.7148C13.1592 13.3847 12.7141 13.1993 12.25 13.1993H8.75C8.28587 13.1993 7.84075 13.3847 7.51256 13.7148C7.18437 14.0449 7 14.4926 7 14.9594V20.2399H1.75V10.0695L1.76203 10.0585L10.5 1.75828L19.2391 10.0563L19.2511 10.0673L19.25 20.2399Z" fill="#3e6a27"/>
</svg>