<svg width="33" height="33" viewBox="0 0 33 33" fill="none" xmlns="http://www.w3.org/2000/svg">
<path d="M6.83333 14.315C6.83333 8.25789 11.4212 4.38167 16.5 4.38167C21.5788 4.38167 26.1667 8.25789 26.1667 14.315C26.1667 16.1764 25.4483 18.2935 23.8828 20.6897C22.3195 23.0827 19.9475 25.6979 16.7356 28.5351C16.6056 28.6461 16.4075 28.6461 16.2776 28.5349C13.0588 25.6976 10.6835 23.0823 9.11858 20.6893C7.55165 18.2933 6.83333 16.1763 6.83333 14.315ZM12.8333 14.0483C12.8333 16.0673 14.481 17.715 16.5 17.715C18.5189 17.715 20.1667 16.0673 20.1667 14.0483C20.1667 12.0294 18.5189 10.3817 16.5 10.3817C14.481 10.3817 12.8333 12.0294 12.8333 14.0483Z" stroke="#FC802A" stroke-width="2"/>
</svg>
